<svg width="42" height="52" viewBox="0 0 42 52" fill="none" xmlns="http://www.w3.org/2000/svg">
<mask id="mask0_332_26" style="mask-type:luminance" maskUnits="userSpaceOnUse" x="0" y="0" width="42" height="53">
<path d="M0 0H41.04V52.003H0V0Z" fill="white"/>
</mask>
<g mask="url(#mask0_332_26)">
<mask id="mask1_332_26" style="mask-type:luminance" maskUnits="userSpaceOnUse" x="0" y="0" width="41" height="52">
<path d="M37.7271 14.8803C36.6721 17.3683 35.4181 19.3603 33.9651 20.8523C32.5121 22.3453 30.7111 23.4773 28.5951 24.2553C26.4731 25.0283 23.8551 25.5553 20.7431 25.8253V29.0283C22.5361 29.4583 23.8171 30.0243 24.5941 30.7203C25.3511 31.3876 25.865 32.2873 26.0551 33.2783C26.2551 34.2823 26.3451 35.8253 26.3451 37.8763V37.9863H14.6751V23.2693C14.6751 21.2073 14.7731 19.6763 14.9601 18.6723C15.1453 17.6783 15.6617 16.7763 16.4251 16.1133C17.2101 15.4183 18.4841 14.8513 20.2731 14.4223V11.2193C17.1601 10.9493 14.5431 10.4223 12.4251 9.64934C10.3051 8.87134 8.50312 7.73934 7.05512 6.24634C5.60112 4.75434 4.33512 2.76234 3.28112 0.277344H0.078125V51.9613H40.9411V14.8803H37.7271Z" fill="white"/>
</mask>
<g mask="url(#mask1_332_26)">
<mask id="mask2_332_26" style="mask-type:luminance" maskUnits="userSpaceOnUse" x="-1" y="-1" width="43" height="54">
<path d="M-0.22998 -0.296875H41.77V52.7031H-0.22998V-0.296875Z" fill="white"/>
</mask>
<g mask="url(#mask2_332_26)">
<mask id="mask3_332_26" style="mask-type:luminance" maskUnits="userSpaceOnUse" x="0" y="0" width="41" height="52">
<path d="M0 0.171875H40.98V51.9829H0V0.171875Z" fill="white"/>
</mask>
<g mask="url(#mask3_332_26)">
<mask id="mask4_332_26" style="mask-type:luminance" maskUnits="userSpaceOnUse" x="0" y="0" width="41" height="52">
<path d="M37.7271 14.8793C36.6721 17.3673 35.4181 19.3593 33.9651 20.8513C32.5121 22.3443 30.7111 23.4763 28.5951 24.2543C26.4731 25.0273 23.8551 25.5543 20.7431 25.8243V29.0273C22.5361 29.4573 23.8171 30.0233 24.5941 30.7193C25.3511 31.3866 25.865 32.2863 26.0551 33.2773C26.2551 34.2813 26.3451 35.8243 26.3451 37.8753V37.9853H14.6751V23.2683C14.6751 21.2063 14.7731 19.6753 14.9601 18.6713C15.1453 17.6773 15.6617 16.7753 16.4251 16.1123C17.2101 15.4173 18.4841 14.8503 20.2731 14.4213V11.2183C17.1601 10.9483 14.5431 10.4213 12.4251 9.64834C10.3051 8.87034 8.5031 7.73834 7.0551 6.24534C5.6011 4.75434 4.3351 2.76234 3.2811 0.277344H0.0791016V51.9613H40.9421V14.8793H37.7271Z" fill="white"/>
</mask>
<g mask="url(#mask4_332_26)">
<path d="M-103.465 -66.9766H149.255V140.383H-103.465V-66.9766Z" fill="#8B171A"/>
</g>
</g>
</g>
</g>
</g>
</svg>
